<?xml version="1.0" encoding="utf-8"?>
<!-- Generator: Adobe Illustrator 24.3.0, SVG Export Plug-In . SVG Version: 6.00 Build 0)  -->
<svg version="1.1" id="Layer_1" xmlns="http://www.w3.org/2000/svg" xmlns:xlink="http://www.w3.org/1999/xlink" x="0px" y="0px"
	 viewBox="0 0 200 50" style="enable-background:new 0 0 200 50;" xml:space="preserve">
<style type="text/css">
	.st0{fill:#FFFFFF;}
</style>
<g>
	<rect x="141.2" y="36.6" class="st0" width="58.8" height="0.4"/>
	<rect y="36.6" class="st0" width="59.1" height="0.4"/>
	<g>
		<path class="st0" d="M10,21.4H2.5c0,0.8,0.3,1.5,0.9,1.9c0.5,0.5,1.2,0.7,2.1,0.7c1.1,0,2-0.3,2.5-0.9L9,25.1
			c-0.9,0.7-2.1,1-3.8,1c-1.6,0-2.9-0.5-3.8-1.4C0.5,23.8,0,22.5,0,20.8c0-1.6,0.5-3,1.5-4c1-1,2.2-1.5,3.7-1.5
			c1.5,0,2.7,0.5,3.6,1.4c0.9,0.9,1.4,2.1,1.4,3.5C10.2,20.4,10.1,20.8,10,21.4z M2.6,19.6h5.1c-0.2-1.5-1-2.3-2.5-2.3
			C3.8,17.3,3,18.1,2.6,19.6z"/>
		<path class="st0" d="M18.9,25.9v-0.6c-0.2,0.2-0.5,0.4-1,0.6c-0.5,0.2-1,0.2-1.5,0.2c-1.5,0-2.6-0.5-3.4-1.4
			c-0.8-0.9-1.3-2.2-1.3-3.9c0-1.7,0.5-3,1.4-4c1-1,2.2-1.6,3.6-1.6c0.8,0,1.5,0.2,2.2,0.5v-4.2l2.4-0.6v14.9H18.9z M18.9,18
			c-0.5-0.4-1.1-0.6-1.6-0.6c-1,0-1.7,0.3-2.3,0.9c-0.5,0.6-0.8,1.4-0.8,2.6c0,2.2,1,3.3,3.1,3.3c0.2,0,0.5-0.1,0.9-0.2
			c0.3-0.1,0.6-0.3,0.7-0.4V18z"/>
		<path class="st0" d="M34,26.1h-0.9l-2.9-6.4l-2.9,6.4h-0.9l-3.9-10.6h2.6l2.1,6.2l2.6-6.2h0.9l2.6,6.3l2.3-6.3H38L34,26.1z"/>
		<path class="st0" d="M44.8,24.9c-0.2,0.4-0.6,0.7-1.2,0.9c-0.5,0.2-1.1,0.3-1.7,0.3c-1.1,0-2-0.3-2.7-0.8c-0.6-0.6-1-1.4-1-2.4
			c0-1.2,0.5-2.2,1.4-2.8c0.9-0.7,2.2-1,3.9-1c0.3,0,0.6,0,1,0.1c0-1.2-0.8-1.8-2.3-1.8c-0.9,0-1.7,0.2-2.3,0.5l-0.5-1.9
			c0.8-0.4,1.8-0.6,3-0.6c1.6,0,2.8,0.4,3.5,1.1c0.7,0.7,1.1,2.1,1.1,4.1v2.2c0,1.4,0.3,2.3,0.8,2.6c-0.2,0.4-0.4,0.6-0.7,0.6
			c-0.2,0.1-0.5,0.1-0.8,0.1c-0.4,0-0.7-0.1-0.9-0.4C45.1,25.4,44.9,25.2,44.8,24.9z M44.6,21c-0.4-0.1-0.7-0.1-0.9-0.1
			c-1.9,0-2.9,0.6-2.9,1.9c0,0.9,0.5,1.4,1.6,1.4c1.5,0,2.2-0.7,2.2-2.2V21z"/>
		<path class="st0" d="M55.7,17.7c-0.4-0.3-0.9-0.4-1.4-0.4c-0.6,0-1.1,0.3-1.5,0.8c-0.4,0.5-0.7,1.1-0.7,1.9v5.9h-2.4V15.5h2.4v1
			c0.7-0.8,1.6-1.2,2.7-1.2c0.8,0,1.5,0.1,1.9,0.4L55.7,17.7z"/>
		<path class="st0" d="M64.3,25.9v-0.6c-0.2,0.2-0.5,0.4-1,0.6c-0.5,0.2-1,0.2-1.5,0.2c-1.5,0-2.6-0.5-3.4-1.4
			c-0.8-0.9-1.3-2.2-1.3-3.9c0-1.7,0.5-3,1.4-4c1-1,2.2-1.6,3.6-1.6c0.8,0,1.5,0.2,2.2,0.5v-4.2l2.4-0.6v14.9H64.3z M64.3,18
			c-0.5-0.4-1.1-0.6-1.6-0.6c-1,0-1.7,0.3-2.3,0.9c-0.5,0.6-0.8,1.4-0.8,2.6c0,2.2,1,3.3,3.1,3.3c0.2,0,0.5-0.1,0.9-0.2
			c0.3-0.1,0.6-0.3,0.7-0.4V18z"/>
		<path class="st0" d="M82,25.9v-6.4c0-0.6-0.2-1.2-0.6-1.6c-0.4-0.4-0.9-0.6-1.6-0.6c-0.4,0-0.8,0.1-1.2,0.3
			c-0.4,0.2-0.7,0.5-0.9,0.7v7.5h-2.5V11.6l2.5-0.6v5.1c0.6-0.6,1.5-0.9,2.6-0.9c1.3,0,2.3,0.4,3,1.1c0.7,0.7,1.1,1.8,1.1,3.1v6.4
			H82z"/>
		<path class="st0" d="M92.9,24.9c-0.2,0.4-0.6,0.7-1.2,0.9c-0.5,0.2-1.1,0.3-1.7,0.3c-1.1,0-2-0.3-2.7-0.8c-0.6-0.6-1-1.4-1-2.4
			c0-1.2,0.5-2.2,1.4-2.8c0.9-0.7,2.2-1,3.9-1c0.3,0,0.6,0,1,0.1c0-1.2-0.8-1.8-2.3-1.8c-0.9,0-1.7,0.2-2.3,0.5l-0.5-1.9
			c0.8-0.4,1.8-0.6,3-0.6c1.6,0,2.8,0.4,3.5,1.1c0.7,0.7,1.1,2.1,1.1,4.1v2.2c0,1.4,0.3,2.3,0.8,2.6c-0.2,0.4-0.4,0.6-0.7,0.6
			c-0.2,0.1-0.5,0.1-0.8,0.1c-0.4,0-0.7-0.1-0.9-0.4C93.1,25.4,93,25.2,92.9,24.9z M92.6,21c-0.4-0.1-0.7-0.1-0.9-0.1
			c-1.9,0-2.9,0.6-2.9,1.9c0,0.9,0.5,1.4,1.6,1.4c1.5,0,2.2-0.7,2.2-2.2V21z"/>
		<path class="st0" d="M104.4,25.9v-6c0-0.9-0.2-1.5-0.5-2c-0.3-0.4-0.9-0.6-1.7-0.6c-0.4,0-0.7,0.1-1.1,0.3c-0.4,0.2-0.7,0.5-1,0.8
			v7.5h-2.4V15.5h1.8l0.4,1c0.7-0.8,1.6-1.2,2.9-1.2c1.2,0,2.2,0.4,2.9,1.1c0.7,0.7,1.1,1.8,1.1,3.1v6.4H104.4z"/>
		<path class="st0" d="M115.9,25.9v-0.6c-0.2,0.2-0.5,0.4-1,0.6c-0.5,0.2-1,0.2-1.5,0.2c-1.5,0-2.6-0.5-3.4-1.4
			c-0.8-0.9-1.3-2.2-1.3-3.9c0-1.7,0.5-3,1.4-4c1-1,2.2-1.6,3.6-1.6c0.8,0,1.5,0.2,2.2,0.5v-4.2l2.4-0.6v14.9H115.9z M115.9,18
			c-0.5-0.4-1.1-0.6-1.6-0.6c-1,0-1.7,0.3-2.3,0.9c-0.5,0.6-0.8,1.4-0.8,2.6c0,2.2,1,3.3,3.1,3.3c0.2,0,0.5-0.1,0.9-0.2
			c0.3-0.1,0.6-0.3,0.7-0.4V18z"/>
		<path class="st0" d="M120.1,25.2l0.9-1.9c0.7,0.6,1.6,0.9,2.5,0.9c0.9,0,1.4-0.3,1.4-1c0-0.4-0.1-0.7-0.4-1
			c-0.3-0.3-0.8-0.6-1.7-0.9c-1.8-0.7-2.7-1.8-2.7-3.1c0-0.9,0.3-1.6,1-2.1c0.7-0.5,1.6-0.8,2.6-0.8c1.1,0,2.1,0.2,3.1,0.7l-0.7,1.9
			c-0.5-0.5-1.3-0.7-2.2-0.7c-0.9,0-1.3,0.3-1.3,1c0,0.3,0.1,0.5,0.4,0.7c0.3,0.2,0.9,0.5,1.8,0.9c0.9,0.4,1.6,0.8,2,1.3
			c0.4,0.5,0.6,1.1,0.6,1.9c0,1-0.4,1.7-1.1,2.3c-0.7,0.6-1.7,0.8-2.9,0.8c-0.7,0-1.3-0.1-1.7-0.2C121.3,25.8,120.8,25.6,120.1,25.2
			z"/>
		<path class="st0" d="M154.8,11.6l2.4-0.6v11.7c0,1.3,0.4,2.1,1.2,2.3c-0.4,0.7-1,1.1-1.9,1.1c-1.1,0-1.7-0.8-1.7-2.3V11.6z"/>
		<path class="st0" d="M169.6,21.4h-7.5c0,0.8,0.3,1.5,0.9,1.9c0.5,0.5,1.2,0.7,2.1,0.7c1.1,0,2-0.3,2.5-0.9l0.9,1.9
			c-0.9,0.7-2.1,1-3.8,1c-1.6,0-2.9-0.5-3.8-1.4c-0.9-0.9-1.4-2.2-1.4-3.9c0-1.6,0.5-3,1.5-4c1-1,2.2-1.5,3.7-1.5
			c1.5,0,2.7,0.5,3.6,1.4c0.9,0.9,1.4,2.1,1.4,3.5C169.8,20.4,169.7,20.8,169.6,21.4z M162.2,19.6h5.1c-0.2-1.5-1-2.3-2.5-2.3
			C163.4,17.3,162.5,18.1,162.2,19.6z"/>
		<path class="st0" d="M182,26.1h-0.9l-2.9-6.4l-2.9,6.4h-0.9l-3.9-10.6h2.6l2.1,6.2l2.6-6.2h0.9l2.6,6.3l2.3-6.3h2.4L182,26.1z"/>
		<path class="st0" d="M188,25.9v-8.4h-1.3v-2h3.8v10.4H188z M189.3,11.4c0.4,0,0.7,0.1,1,0.4c0.3,0.3,0.4,0.6,0.4,1
			c0,0.4-0.1,0.7-0.4,1c-0.3,0.3-0.6,0.4-1,0.4s-0.7-0.1-1-0.4c-0.3-0.3-0.4-0.6-0.4-1c0-0.4,0.1-0.7,0.4-1
			C188.6,11.5,188.9,11.4,189.3,11.4z"/>
		<path class="st0" d="M192.7,25.2l0.9-1.9c0.7,0.6,1.6,0.9,2.5,0.9c0.9,0,1.4-0.3,1.4-1c0-0.4-0.1-0.7-0.4-1
			c-0.3-0.3-0.8-0.6-1.7-0.9c-1.8-0.7-2.7-1.8-2.7-3.1c0-0.9,0.3-1.6,1-2.1c0.7-0.5,1.6-0.8,2.6-0.8c1.1,0,2.1,0.2,3.1,0.7l-0.7,1.9
			c-0.5-0.5-1.3-0.7-2.2-0.7c-0.9,0-1.3,0.3-1.3,1c0,0.3,0.1,0.5,0.4,0.7c0.3,0.2,0.9,0.5,1.8,0.9c0.9,0.4,1.6,0.8,2,1.3
			c0.4,0.5,0.6,1.1,0.6,1.9c0,1-0.4,1.7-1.1,2.3c-0.7,0.6-1.7,0.8-2.9,0.8c-0.7,0-1.3-0.1-1.7-0.2C193.9,25.8,193.4,25.6,192.7,25.2
			z"/>
	</g>
	<g>
		<path class="st0" d="M64.8,38.7l0.3-0.7c0.4,0.3,0.8,0.4,1,0.4c0.5,0,0.7-0.2,0.7-0.6c0-0.3-0.2-0.5-0.7-0.7
			c-0.4-0.2-0.6-0.3-0.7-0.4c-0.1-0.1-0.2-0.2-0.3-0.3c-0.1-0.1-0.2-0.2-0.2-0.3c0-0.1-0.1-0.2-0.1-0.4c0-0.4,0.1-0.6,0.4-0.8
			c0.3-0.2,0.6-0.3,1-0.3c0.3,0,0.7,0.1,1.2,0.3l-0.2,0.7c-0.3-0.2-0.6-0.4-0.9-0.4c-0.2,0-0.3,0-0.5,0.1c-0.1,0.1-0.2,0.2-0.2,0.3
			c0,0.3,0.2,0.5,0.5,0.6l0.5,0.2c0.3,0.2,0.6,0.3,0.7,0.5c0.2,0.2,0.2,0.4,0.2,0.7c0,0.4-0.1,0.7-0.4,0.9c-0.3,0.2-0.6,0.3-1.1,0.3
			C65.6,39,65.2,38.9,64.8,38.7z"/>
		<path class="st0" d="M68.1,36.8c0-0.7,0.2-1.2,0.5-1.6c0.4-0.4,0.8-0.6,1.4-0.6c0.6,0,1.1,0.2,1.4,0.6c0.3,0.4,0.5,0.9,0.5,1.6
			c0,0.7-0.2,1.2-0.5,1.6c-0.3,0.4-0.8,0.6-1.4,0.6c-0.6,0-1.1-0.2-1.4-0.6C68.3,38,68.1,37.4,68.1,36.8z M68.9,36.8
			c0,1.1,0.4,1.6,1.1,1.6c0.4,0,0.6-0.1,0.8-0.4c0.2-0.3,0.3-0.7,0.3-1.2c0-1.1-0.4-1.6-1.1-1.6c-0.3,0-0.6,0.1-0.8,0.4
			C69,35.9,68.9,36.3,68.9,36.8z"/>
		<path class="st0" d="M72.9,37.7v-4.8h0.8v4.7c0,0.2,0.1,0.4,0.2,0.5c0.1,0.1,0.3,0.2,0.5,0.2V39C73.4,39,72.9,38.6,72.9,37.7z"/>
		<path class="st0" d="M75.6,38.9v-3.7H75v-0.6h1.4v4.3H75.6z M76,33c0.1,0,0.2,0,0.3,0.1c0.1,0.1,0.1,0.2,0.1,0.3
			c0,0.1,0,0.2-0.1,0.3c-0.1,0.1-0.2,0.1-0.3,0.1c-0.1,0-0.2,0-0.3-0.1c-0.1-0.1-0.1-0.2-0.1-0.3c0-0.1,0-0.2,0.1-0.3
			C75.8,33,75.9,33,76,33z"/>
		<path class="st0" d="M80.8,35l-0.4,0.5c-0.1-0.1-0.2-0.2-0.4-0.2c-0.2-0.1-0.4-0.1-0.6-0.1c-0.4,0-0.7,0.1-1,0.4
			c-0.2,0.3-0.4,0.7-0.4,1.2c0,0.5,0.1,0.9,0.4,1.1c0.2,0.3,0.6,0.4,1,0.4c0.3,0,0.7-0.1,1-0.4l0.3,0.6c-0.4,0.3-0.9,0.4-1.5,0.4
			c-0.6,0-1.1-0.2-1.5-0.6c-0.4-0.4-0.6-0.9-0.6-1.6c0-0.7,0.2-1.2,0.6-1.6c0.4-0.4,0.9-0.6,1.6-0.6c0.2,0,0.5,0,0.7,0.1
			C80.5,34.8,80.7,34.9,80.8,35z"/>
		<path class="st0" d="M82,38.9v-3.7h-0.6v-0.6h1.4v4.3H82z M82.4,33c0.1,0,0.2,0,0.3,0.1c0.1,0.1,0.1,0.2,0.1,0.3
			c0,0.1,0,0.2-0.1,0.3c-0.1,0.1-0.2,0.1-0.3,0.1c-0.1,0-0.2,0-0.3-0.1C82,33.7,82,33.6,82,33.5c0-0.1,0-0.2,0.1-0.3
			C82.2,33,82.3,33,82.4,33z"/>
		<path class="st0" d="M84.3,35.2h-0.5v-0.6h0.5v-0.9l0.8-0.3v1.2h1.2v0.6H85v2.1c0,0.4,0.1,0.6,0.2,0.8c0.1,0.2,0.3,0.2,0.6,0.2
			c0.2,0,0.4,0,0.6-0.1l0.1,0.7c-0.3,0.1-0.7,0.1-1,0.1c-0.3,0-0.6-0.1-0.9-0.4c-0.2-0.3-0.4-0.6-0.4-1V35.2z"/>
		<path class="st0" d="M87,36.8c0-0.7,0.2-1.2,0.5-1.6c0.4-0.4,0.8-0.6,1.4-0.6c0.6,0,1.1,0.2,1.4,0.6c0.3,0.4,0.5,0.9,0.5,1.6
			c0,0.7-0.2,1.2-0.5,1.6C90,38.8,89.5,39,88.9,39c-0.6,0-1.1-0.2-1.4-0.6C87.2,38,87,37.4,87,36.8z M87.8,36.8
			c0,1.1,0.4,1.6,1.1,1.6c0.4,0,0.6-0.1,0.8-0.4c0.2-0.3,0.3-0.7,0.3-1.2c0-1.1-0.4-1.6-1.1-1.6c-0.3,0-0.6,0.1-0.8,0.4
			C87.9,35.9,87.8,36.3,87.8,36.8z"/>
		<path class="st0" d="M94,35.4c-0.2-0.1-0.3-0.2-0.5-0.2c-0.3,0-0.5,0.1-0.7,0.4c-0.2,0.2-0.3,0.5-0.3,0.9v2.5h-0.8v-4.3h0.8v0.7
			c0.3-0.5,0.7-0.8,1.2-0.8c0.1,0,0.3,0,0.6,0.1L94,35.4z"/>
		<path class="st0" d="M94.6,38.7l0.3-0.7c0.4,0.3,0.8,0.4,1,0.4c0.5,0,0.7-0.2,0.7-0.6c0-0.3-0.2-0.5-0.7-0.7
			c-0.4-0.2-0.6-0.3-0.7-0.4c-0.1-0.1-0.2-0.2-0.3-0.3c-0.1-0.1-0.2-0.2-0.2-0.3c0-0.1-0.1-0.2-0.1-0.4c0-0.4,0.1-0.6,0.4-0.8
			c0.3-0.2,0.6-0.3,1-0.3c0.3,0,0.7,0.1,1.2,0.3L97,35.5c-0.3-0.2-0.6-0.4-0.9-0.4c-0.2,0-0.3,0-0.5,0.1c-0.1,0.1-0.2,0.2-0.2,0.3
			c0,0.3,0.2,0.5,0.5,0.6l0.5,0.2c0.3,0.2,0.6,0.3,0.7,0.5c0.2,0.2,0.2,0.4,0.2,0.7c0,0.4-0.1,0.7-0.4,0.9S96.3,39,95.9,39
			C95.4,39,95,38.9,94.6,38.7z"/>
		<path class="st0" d="M100.9,38.7l0.3-0.7c0.4,0.3,0.8,0.4,1,0.4c0.5,0,0.7-0.2,0.7-0.6c0-0.3-0.2-0.5-0.7-0.7
			c-0.4-0.2-0.6-0.3-0.7-0.4c-0.1-0.1-0.2-0.2-0.3-0.3c-0.1-0.1-0.2-0.2-0.2-0.3c0-0.1-0.1-0.2-0.1-0.4c0-0.4,0.1-0.6,0.4-0.8
			c0.3-0.2,0.6-0.3,1-0.3c0.3,0,0.7,0.1,1.2,0.3l-0.2,0.7c-0.3-0.2-0.6-0.4-0.9-0.4c-0.2,0-0.3,0-0.5,0.1c-0.1,0.1-0.2,0.2-0.2,0.3
			c0,0.3,0.2,0.5,0.5,0.6l0.5,0.2c0.3,0.2,0.6,0.3,0.7,0.5c0.2,0.2,0.2,0.4,0.2,0.7c0,0.4-0.1,0.7-0.4,0.9c-0.3,0.2-0.6,0.3-1.1,0.3
			C101.7,39,101.3,38.9,100.9,38.7z"/>
		<path class="st0" d="M104.9,38.9v-3.7h-0.6v-0.6h1.4v4.3H104.9z M105.3,33c0.1,0,0.2,0,0.3,0.1c0.1,0.1,0.1,0.2,0.1,0.3
			c0,0.1,0,0.2-0.1,0.3c-0.1,0.1-0.2,0.1-0.3,0.1c-0.1,0-0.2,0-0.3-0.1c-0.1-0.1-0.1-0.2-0.1-0.3c0-0.1,0-0.2,0.1-0.3
			C105,33,105.1,33,105.3,33z"/>
		<path class="st0" d="M109.5,38.9v-2.5c0-0.5-0.1-0.8-0.2-1c-0.1-0.2-0.4-0.3-0.7-0.3c-0.2,0-0.4,0.1-0.5,0.2
			c-0.2,0.1-0.3,0.2-0.4,0.4v3.2h-0.8v-4.3h0.5l0.2,0.6c0.3-0.4,0.7-0.6,1.2-0.6c0.9,0,1.4,0.6,1.4,1.7v2.7H109.5z"/>
		<path class="st0" d="M114.6,35l-0.4,0.5c-0.1-0.1-0.2-0.2-0.4-0.2c-0.2-0.1-0.4-0.1-0.6-0.1c-0.4,0-0.7,0.1-1,0.4
			c-0.2,0.3-0.4,0.7-0.4,1.2c0,0.5,0.1,0.9,0.4,1.1c0.2,0.3,0.6,0.4,1,0.4c0.3,0,0.7-0.1,1-0.4l0.3,0.6c-0.4,0.3-0.9,0.4-1.5,0.4
			c-0.6,0-1.1-0.2-1.5-0.6c-0.4-0.4-0.6-0.9-0.6-1.6c0-0.7,0.2-1.2,0.6-1.6c0.4-0.4,0.9-0.6,1.6-0.6c0.2,0,0.5,0,0.7,0.1
			C114.2,34.8,114.4,34.9,114.6,35z"/>
		<path class="st0" d="M119,36.8h-3.1c0,0.5,0.1,0.9,0.4,1.2c0.2,0.2,0.6,0.4,0.9,0.4c0.4,0,0.8-0.1,1.1-0.4l0.3,0.5
			c-0.1,0.1-0.3,0.2-0.5,0.3c-0.3,0.1-0.6,0.2-1,0.2c-0.5,0-1-0.2-1.4-0.5c-0.4-0.4-0.6-0.9-0.6-1.6c0-0.7,0.2-1.3,0.6-1.7
			c0.4-0.4,0.8-0.6,1.4-0.6c0.6,0,1.1,0.2,1.4,0.5c0.3,0.3,0.5,0.8,0.5,1.3C119.1,36.6,119,36.7,119,36.8z M117.2,35.2
			c-0.3,0-0.6,0.1-0.9,0.3c-0.2,0.2-0.3,0.5-0.4,0.8h2.4c0-0.3-0.1-0.6-0.3-0.8C117.8,35.3,117.5,35.2,117.2,35.2z"/>
		<path class="st0" d="M123.1,38.9v-4.5l-1.2,0.7v-0.8c0.3-0.2,0.6-0.4,1-0.6c0.3-0.3,0.6-0.5,0.8-0.8h0.2v5.9H123.1z"/>
		<path class="st0" d="M126.3,35.7c-0.2-0.1-0.5-0.3-0.6-0.6s-0.2-0.5-0.2-0.7c0-0.4,0.1-0.8,0.4-1c0.3-0.3,0.7-0.4,1.1-0.4
			c0.5,0,0.9,0.1,1.2,0.4c0.3,0.3,0.4,0.6,0.4,1c0,0.3-0.1,0.5-0.3,0.8c-0.2,0.3-0.4,0.5-0.6,0.6c0.7,0.4,1.1,0.9,1.1,1.6
			c0,0.5-0.2,1-0.5,1.3c-0.3,0.3-0.8,0.4-1.3,0.4c-1.2,0-1.8-0.6-1.8-1.7c0-0.3,0.1-0.7,0.3-1C125.7,36,126,35.8,126.3,35.7z
			 M126.9,36c-0.6,0.3-0.9,0.7-0.9,1.3c0,0.3,0.1,0.5,0.3,0.7c0.2,0.2,0.4,0.3,0.7,0.3c0.3,0,0.5-0.1,0.7-0.3
			c0.2-0.2,0.3-0.4,0.3-0.7c0-0.2-0.1-0.4-0.2-0.6C127.7,36.5,127.4,36.3,126.9,36z M127.2,35.4c0.4-0.3,0.5-0.7,0.5-1.1
			c0-0.2-0.1-0.4-0.2-0.5c-0.1-0.1-0.3-0.2-0.6-0.2c-0.5,0-0.8,0.2-0.8,0.7C126.2,34.7,126.6,35.1,127.2,35.4z"/>
		<path class="st0" d="M130.7,39l-0.4-0.4c0.2-0.1,0.6-0.4,1-0.9c0.4-0.5,0.7-1,0.7-1.2c-0.2,0.2-0.5,0.3-0.9,0.3
			c-0.5,0-0.9-0.2-1.2-0.5c-0.3-0.3-0.5-0.8-0.5-1.4c0-0.6,0.2-1,0.5-1.4c0.3-0.4,0.7-0.5,1.2-0.5c1.3,0,1.9,0.9,1.9,2.6
			c0,0.7-0.3,1.4-0.8,2.2C131.8,38.4,131.3,38.9,130.7,39z M132.2,34.9c0-0.8-0.3-1.3-1-1.3c-0.3,0-0.5,0.1-0.7,0.3
			c-0.2,0.2-0.3,0.5-0.3,0.9c0,0.4,0.1,0.7,0.3,0.9c0.2,0.2,0.4,0.3,0.7,0.3C131.9,36,132.2,35.7,132.2,34.9z"/>
		<path class="st0" d="M135,38.9h-0.9c0.2-0.6,0.5-1.5,1-2.5c0.5-1,0.9-1.9,1.3-2.6h-2.8V33h3.8v0.3l-0.5,1
			c-0.2,0.3-0.4,0.7-0.5,1.1c-0.2,0.4-0.4,0.8-0.6,1.3c-0.2,0.4-0.3,0.8-0.5,1.2C135.2,38.3,135.1,38.6,135,38.9z"/>
	</g>
	<path class="st0" d="M145.5,17.2v-2l-2.4,0.9v1.1h-2.2c-1.5,0-2.2-0.6-2.2-1.8c0-1.3,0.7-1.9,2-1.9c0.7,0,1.4,0.3,2,1l1.2-1.7
		c-0.3-0.4-0.8-0.7-1.4-1c-0.7-0.3-1.3-0.4-2-0.4c-1.4,0-2.5,0.3-3.3,1c-0.8,0.7-1.2,1.6-1.2,2.7c0,1.4,0.6,2.5,1.8,3.2
		c-1.5,0.7-2.3,1.9-2.3,3.6c0,1.4,0.5,2.4,1.4,3.2c0.9,0.7,2.1,1.1,3.7,1.1c1.6,0,2.7-0.5,3.6-1.5c0.9-1,1.2-2.3,1.2-4v-1.3h2.1
		v-2.1H145.5z M140.6,23.9c-1.6,0-2.4-0.8-2.4-2.3c0-0.7,0.2-1.3,0.7-1.7c0.5-0.4,1.1-0.6,1.9-0.6h2.3v1.3c0,1.1-0.2,2-0.7,2.6
		C142,23.8,141.4,23.9,140.6,23.9z"/>
</g>
</svg>
